<?xml version="1.0" encoding="utf-8"?>
<!-- Generator: Adobe Illustrator 16.0.0, SVG Export Plug-In . SVG Version: 6.00 Build 0)  -->
<!DOCTYPE svg PUBLIC "-//W3C//DTD SVG 1.1//EN" "http://www.w3.org/Graphics/SVG/1.1/DTD/svg11.dtd">
<svg version="1.1" id="Layer_1" xmlns="http://www.w3.org/2000/svg" xmlns:xlink="http://www.w3.org/1999/xlink" x="0px" y="0px"
	 width="810px" height="386.448px" viewBox="0 0 810 386.448" enable-background="new 0 0 810 386.448" xml:space="preserve">
<g>
	<path fill="none" d="M400.406,213.385c3.695-2.46,6.869-6.167,8.58-10.016c1.025-2.308,0.754-3.064-0.814-3.412"/>
	<path fill="none" d="M404.848,193.077C405.227,192.759,405.287,192.617,404.848,193.077L404.848,193.077z"/>
	<path fill="#013048" d="M555.227,216.44c9.119-11.134,16.531-29.478,7.754-39.835c-6.957-8.203-17.297,0.192-22.391,6.917
		c-5.51,7.279-8.805,16.311-7.336,25.481c0.01,0.063,0.027,0.125,0.037,0.188c-1.951,0.006-6.504-1.879-8.336-3.885
		c-5.477-5.99-7.963-13.86-11.648-20.991c-2.604-5.046-7.287-7.452-11.273-4.239c-3.162-1.165-7.244-1.072-9.063,2.068
		c-5.531,9.566-9.531,23.228-15.383,33.797c-5.725,10.341-15.305,24.179-26.316,29.729c-7.682,3.871-10.543-5.093-10.396-12.009
		c7.641-0.973,16.289-4.722,22.553-10.817c9.236-8.987,14.607-26.731,5.529-37.576c-4-4.778-14.096-7.836-20.023-6.208
		c-6.086,1.674-10.537,9.762-13.441,14.795c-2.74,4.746-5.215,11.711-7.141,17.222c-0.303-0.298-0.588-0.609-0.834-0.94
		c-3.584-4.848-1.688-15.493-1.73-21.057c-0.055-6.989-10.998-12.598-14.879-4.342c-4.266,9.074-4.99,21.623-9,30.783
		c-3.111,7.104-8.029,17.031-9.936,16.29c-2.57-0.999-3.248-8.896-2.154-15.887c1.461-9.352,2.354-18.24,4.984-28.072
		c2.59-9.683-12.571-16.37-16.259-6.853c-4.38,11.304-6.447,24.68-11.367,35.087c-8.612,18.209-15.513,24.685-23.013,33.601
		c-0.382-1.923-2.26-47.154,0.117-75.525c22.822-5.784,36.398-10.923,54.238-18.243c10.613-4.355,1.977-20.03-7.877-14.703
		c-13.604,7.356-29.774,13.561-45.491,18.25c0.129-1.579,4.519-62.688,14.555-115.085c2.118-11.059-9.178-13.839-12.438-2.598
		c-22.165,76.457-44.069,119.429-50.598,132.421c-3.927,0.589-9.931,1.6-13.894,1.888c-1.664,0.122-3.332,0.169-5,0.188
		c-0.704,0.007-4.929-0.531-3.415-0.099c-5.93-1.694-10.589,9.318-5.25,9.516c8.903,0.328,18.103-0.483,23.977-1.205
		c-5.083,12.708-17.685,39.355-48.217,80.405c-6.861,9.226,7.903,17.717,14.111,8.087c31.67-49.137,42.283-76.3,49.035-90.785
		c7.016-1.377,12.407-2.34,19.062-3.955c-0.849,19.767,0.009,55.263,0.848,62.403c1.063,9.058,2.253,17.661,6.339,25.56
		c2.846,5.499,9.783,5.225,13.97,1.801c4.58-3.748,6.164-7.211,12.445-14.935c2.847-3.5,11.243-14.841,11.81-15.891
		c1.354,11.408,10.161,24.938,16.011,25.573c7.053,0.765,20.326-17.588,27.035-38.075c1.93,2.042,4.332,3.866,7.369,5.401
		c0.51,0.258,1.018,0.473,1.527,0.702c-0.248,3.248-0.232,6.476,0.129,9.626c1.672,14.521,13.602,27.511,28.42,23.068
		c15.85-4.756,21.436-17.407,28.662-28.76c1.945-3.056,5.992-9.312,7.73-12.496c-1.65,9.365-3.178,23.078-1.998,32.522
		c1.375,11.062,17.611,11.789,17.789,0c0.201-13.279,0.092-27.016,4.328-40.781c1.916,2.875,10.998,11.472,29.861,10.165
		c2.049,1.837,3.875,5.321,4.66,6.781c1.121,2.081,3.17,8.465,2.613,10.87c-0.857,3.699-9.527,7.016-12.283,7.905
		c-10.871,3.514-7.195,16.773,3.752,13.236c13.332-4.312,27.791-12.485,24.891-28.756
		C561.967,228.436,558.334,221.619,555.227,216.44z M310.379,170.963c5.501-12.479,15.664-32.791,20.69-45.451
		c-0.91,8.61-2.676,36.486-2.914,39.518C316.404,169.705,314.567,170.089,310.379,170.963z M454.662,198.591
		c1.568,0.348,1.84,1.106,0.814,3.412c-1.711,3.852-5.396,7.558-9.094,10.016C448.041,206.236,451.146,201.365,454.662,198.591z"/>
	<g>
		<path fill="#231F20" d="M176.156,319.418c1.085-1.228,1.935-2.637,2.548-4.229c0.615-1.589,1.102-3.145,1.464-4.663l0.705,0.108
			v12.47h-0.705l-1.843-2.981c-1.626,1.158-3.38,2.088-5.26,2.793s-3.723,1.055-5.529,1.055c-2.386,0-4.618-0.505-6.696-1.515
			c-2.078-1.013-3.885-2.396-5.422-4.15c-1.536-1.75-2.747-3.821-3.632-6.207c-0.887-2.386-1.329-4.951-1.329-7.697
			c0-2.747,0.442-5.305,1.329-7.675c0.885-2.365,2.088-4.434,3.605-6.208c1.519-1.771,3.308-3.16,5.367-4.173
			s4.283-1.519,6.67-1.519c1.626,0,3.287,0.255,4.986,0.761s3.613,1.338,5.748,2.491l1.301-2.601h0.704l0.543,12.197l-0.76,0.22
			c-0.506-2.783-1.3-5.081-2.386-6.888c-1.083-1.807-2.493-3.179-4.229-4.119c-1.734-0.939-3.65-1.41-5.747-1.41
			c-3.868,0-6.823,1.635-8.864,4.908c-2.042,3.269-3.063,7.942-3.063,14.015c0,6.036,1.021,10.679,3.063,13.933
			c2.041,3.252,4.979,4.88,8.811,4.88c1.662,0,3.252-0.351,4.771-1.056C173.825,321.454,175.106,320.54,176.156,319.418z"/>
		<path fill="#231F20" d="M196.706,299.576c1.59,0,3.044,0.288,4.363,0.866c1.319,0.58,2.448,1.4,3.388,2.467
			c0.94,1.069,1.673,2.342,2.195,3.822c0.525,1.481,0.788,3.109,0.788,4.881c0,1.807-0.263,3.441-0.788,4.907
			c-0.522,1.463-1.255,2.727-2.195,3.792c-0.939,1.069-2.068,1.89-3.388,2.468c-1.319,0.58-2.773,0.868-4.363,0.868
			c-1.593,0-3.046-0.288-4.365-0.868c-1.32-0.578-2.448-1.398-3.389-2.468c-0.941-1.065-1.672-2.329-2.195-3.792
			c-0.524-1.466-0.788-3.101-0.788-4.907c0-1.771,0.264-3.399,0.788-4.881c0.523-1.48,1.254-2.753,2.195-3.822
			c0.94-1.066,2.068-1.887,3.389-2.467C193.66,299.864,195.113,299.576,196.706,299.576z M189.981,311.612
			c0,3.613,0.587,6.433,1.763,8.457c1.174,2.026,2.827,3.035,4.962,3.035c2.095,0,3.741-1.009,4.932-3.035
			c1.193-2.024,1.79-4.844,1.79-8.457c0-3.614-0.597-6.434-1.79-8.458c-1.19-2.025-2.837-3.039-4.932-3.039
			c-2.135,0-3.788,1.014-4.962,3.039C190.568,305.179,189.981,307.998,189.981,311.612z"/>
		<path fill="#231F20" d="M221.103,322.672v0.433h-10.14v-0.433l3.308-0.435v-18.703l-3.198-1.194v-0.381l6.127-2.111h0.434v3.415
			c2.35-2.459,4.77-3.687,7.265-3.687c1.12,0,2.142,0.235,3.063,0.706c0.922,0.469,1.582,1.118,1.979,1.948
			c0.108,0.254,0.208,0.526,0.298,0.814c0.091,0.29,0.154,0.661,0.19,1.112c0.036,0.452,0.063,1.021,0.08,1.707
			c0.019,0.688,0.028,1.538,0.028,2.548v13.825l3.253,0.435v0.433h-10.084v-0.433l3.308-0.435v-13.825
			c0-1.374-0.037-2.412-0.109-3.118c-0.073-0.704-0.217-1.289-0.434-1.76c-0.29-0.615-0.768-1.096-1.437-1.439
			c-0.67-0.341-1.438-0.514-2.305-0.514c-1.843,0-3.487,0.778-4.934,2.33v18.326L221.103,322.672z"/>
		<path fill="#231F20" d="M245.229,299.576c0.902,0,1.798,0.073,2.684,0.215c0.886,0.146,1.617,0.324,2.196,0.544v6.019h-0.598
			c-0.506-2.17-1.147-3.743-1.924-4.719c-0.777-0.977-1.817-1.463-3.117-1.463c-1.192,0-2.15,0.36-2.874,1.082
			c-0.723,0.726-1.084,1.718-1.084,2.984c0,1.082,0.262,1.949,0.786,2.603c0.522,0.651,1.173,1.2,1.951,1.654
			c0.777,0.449,1.617,0.866,2.521,1.247c0.903,0.377,1.744,0.848,2.522,1.41c0.775,0.559,1.427,1.254,1.952,2.084
			c0.522,0.835,0.786,1.917,0.786,3.253c0,2.208-0.705,3.951-2.115,5.232c-1.409,1.283-3.308,1.926-5.692,1.926
			c-0.903,0-1.891-0.089-2.956-0.271s-1.979-0.414-2.738-0.704l-0.269-7.05h0.649c0.759,4.955,2.603,7.43,5.529,7.43
			c1.337,0,2.404-0.424,3.198-1.273c0.796-0.851,1.193-1.963,1.193-3.337c0-1.118-0.262-2.031-0.786-2.736
			c-0.524-0.704-1.175-1.301-1.951-1.79c-0.777-0.485-1.626-0.93-2.55-1.326c-0.921-0.397-1.77-0.868-2.547-1.41
			c-0.778-0.544-1.429-1.222-1.951-2.036c-0.524-0.81-0.785-1.869-0.785-3.169c0-2.063,0.684-3.641,2.059-4.746
			C240.692,300.126,242.661,299.576,245.229,299.576z"/>
		<path fill="#231F20" d="M266.372,300.553v-0.438h6.778v19.627l2.98,0.652v0.271l-5.91,2.71h-0.323v-3.687l-0.164-0.053
			c-2.133,2.674-4.428,4.011-6.885,4.011c-1.12,0-2.114-0.235-2.982-0.705c-0.867-0.47-1.5-1.119-1.896-1.952
			c-0.109-0.251-0.209-0.523-0.299-0.811c-0.091-0.291-0.155-0.662-0.189-1.112c-0.037-0.453-0.065-1.022-0.081-1.708
			c-0.021-0.688-0.028-1.538-0.028-2.551v-13.822l-3.253-0.434v-0.438h6.776v14.693c0,1.41,0.037,2.459,0.109,3.147
			c0.071,0.685,0.217,1.263,0.434,1.733c0.29,0.615,0.723,1.086,1.301,1.409c0.579,0.325,1.248,0.487,2.007,0.487
			c1.878,0,3.505-0.884,4.879-2.653v-17.946L266.372,300.553z"/>
		<path fill="#231F20" d="M288.438,322.672v0.433H278.3v-0.433l3.307-0.435v-34.538l-3.198-1.191v-0.38l6.289-2.115h0.434v38.225
			L288.438,322.672z"/>
		<path fill="#231F20" d="M296.896,294.966v5.149h6.18l-0.325,0.871h-5.854v16.589c0,1.268,0.198,2.204,0.595,2.819
			c0.434,0.866,1.248,1.301,2.44,1.301c0.614,0,1.183-0.143,1.707-0.435c0.523-0.288,1.112-0.757,1.763-1.408l0.217,0.162
			c-0.542,1.121-1.301,2.008-2.276,2.657c-0.976,0.651-2.044,0.976-3.2,0.976c-0.577,0-1.139-0.089-1.68-0.271
			c-0.542-0.183-1.012-0.414-1.409-0.704c-0.615-0.435-1.049-0.984-1.302-1.654s-0.379-1.579-0.379-2.738v-17.35h-2.548
			l-0.109-0.271l5.965-5.745L296.896,294.966z"/>
		<path fill="#231F20" d="M315.437,322.672v0.433h-10.139v-0.433l3.308-0.435v-18.975l-3.198-1.194v-0.377l6.288-2.115h0.434v22.661
			L315.437,322.672z M307.467,291.766c0-0.721,0.235-1.336,0.704-1.844c0.471-0.505,1.103-0.757,1.898-0.757
			c0.794,0,1.429,0.252,1.897,0.757c0.471,0.508,0.705,1.123,0.705,1.844c0,0.725-0.234,1.341-0.705,1.843
			c-0.469,0.507-1.104,0.762-1.897,0.762c-0.796,0-1.428-0.255-1.898-0.762C307.702,293.106,307.467,292.49,307.467,291.766z"/>
		<path fill="#231F20" d="M327.853,322.672v0.433h-10.14v-0.433l3.308-0.435v-18.703l-3.199-1.194v-0.381l6.127-2.111h0.433v3.415
			c2.351-2.459,4.772-3.687,7.266-3.687c1.12,0,2.143,0.235,3.063,0.706c0.923,0.469,1.58,1.118,1.979,1.948
			c0.108,0.254,0.207,0.526,0.298,0.814c0.09,0.29,0.153,0.661,0.19,1.112c0.035,0.452,0.063,1.021,0.081,1.707
			c0.019,0.688,0.027,1.538,0.027,2.548v13.825l3.252,0.435v0.433h-10.084v-0.433l3.308-0.435v-13.825
			c0-1.374-0.036-2.412-0.108-3.118c-0.073-0.704-0.216-1.289-0.434-1.76c-0.291-0.615-0.77-1.096-1.438-1.439
			c-0.669-0.341-1.437-0.514-2.303-0.514c-1.845,0-3.489,0.778-4.935,2.33v18.326L327.853,322.672z"/>
		<path fill="#231F20" d="M351.435,336.443c-2.999,0-5.322-0.526-6.965-1.571c-1.646-1.05-2.467-2.548-2.467-4.501
			c0-1.376,0.522-2.614,1.571-3.717c1.048-1.101,2.493-1.958,4.337-2.573c-1.373-0.506-2.313-1.086-2.82-1.734
			c-0.506-0.651-0.757-1.39-0.757-2.224c0-1.012,0.595-1.933,1.789-2.764c1.192-0.834,2.943-1.502,5.259-2.008
			c-1.121-0.105-2.143-0.377-3.063-0.812c-0.922-0.433-1.718-0.995-2.387-1.681c-0.668-0.688-1.183-1.492-1.545-2.412
			c-0.361-0.923-0.541-1.926-0.541-3.012c0-1.155,0.216-2.214,0.65-3.171c0.433-0.956,1.03-1.79,1.788-2.494
			c0.76-0.705,1.663-1.247,2.712-1.625c1.047-0.381,2.204-0.569,3.47-0.569c2.023,0,3.76,0.507,5.205,1.516
			c0.867-3.144,2.276-4.717,4.229-4.717c0.687,0,1.229,0.189,1.627,0.57c0.397,0.38,0.596,0.877,0.596,1.493
			c0,0.506-0.182,0.94-0.543,1.3c-0.36,0.361-0.794,0.544-1.301,0.544c-0.289,0-0.533-0.057-0.73-0.167
			c-0.2-0.105-0.399-0.231-0.598-0.377c-0.198-0.145-0.399-0.271-0.596-0.38c-0.199-0.109-0.407-0.162-0.624-0.162
			c-0.722,0-1.246,0.741-1.571,2.223c0.938,0.723,1.661,1.6,2.168,2.629c0.506,1.031,0.759,2.176,0.759,3.444
			c0,1.082-0.19,2.095-0.569,3.034c-0.378,0.94-0.922,1.765-1.626,2.469c-0.705,0.705-1.545,1.265-2.521,1.681
			c-0.977,0.414-2.06,0.659-3.254,0.731c-1.843,0.288-3.252,0.722-4.229,1.301c-0.976,0.579-1.464,1.228-1.464,1.952
			c0,0.361,0.072,0.685,0.219,0.977c0.144,0.288,0.45,0.549,0.921,0.784c0.469,0.235,1.118,0.471,1.951,0.704
			c0.832,0.235,1.934,0.48,3.308,0.732c3.109,0.579,5.305,1.393,6.586,2.442c1.285,1.045,1.927,2.527,1.927,4.443
			c0,1.086-0.271,2.099-0.814,3.038c-0.543,0.94-1.301,1.751-2.277,2.438c-0.976,0.685-2.132,1.229-3.468,1.624
			C354.436,336.245,352.988,336.443,351.435,336.443z M352.194,325.275c-1.445-0.328-2.71-0.652-3.796-0.976
			c-2.53,0.903-3.793,2.763-3.793,5.582c0,1.953,0.622,3.445,1.87,4.474c1.246,1.029,3.009,1.545,5.285,1.545
			c2.277,0,4.084-0.495,5.422-1.492c1.338-0.992,2.006-2.34,2.006-4.037c0-0.688-0.108-1.283-0.324-1.79
			c-0.218-0.506-0.589-0.96-1.112-1.356c-0.524-0.397-1.239-0.748-2.143-1.056S353.567,325.563,352.194,325.275z M352.466,314.865
			c1.373,0,2.485-0.685,3.335-2.063c0.848-1.373,1.272-3.143,1.272-5.311c0-2.172-0.425-3.941-1.272-5.314
			c-0.85-1.374-1.962-2.063-3.335-2.063c-1.375,0-2.485,0.688-3.334,2.063c-0.85,1.373-1.274,3.143-1.274,5.314
			c0,2.168,0.425,3.938,1.274,5.311C349.98,314.181,351.091,314.865,352.466,314.865z"/>
		<path fill="#231F20" d="M410.26,305.158c-1.77,4.052-3.668,7.431-5.691,10.141l1.193,1.3c0.723,0.834,1.371,1.528,1.951,2.089
			c0.578,0.559,1.129,1.002,1.654,1.327c0.521,0.327,1.037,0.563,1.545,0.704c0.504,0.146,1.066,0.218,1.68,0.218
			c1.049,0,1.996-0.218,2.848-0.651c0.85-0.433,1.762-1.174,2.736-2.221l0.543-0.599l0.217,0.109l-0.217,0.596
			c-0.688,1.88-1.762,3.355-3.227,4.421c-1.463,1.064-3.135,1.599-5.016,1.599c-1.408,0-2.703-0.345-3.877-1.029
			c-1.174-0.688-2.465-1.844-3.875-3.472l-0.975-1.139c-3.762,3.76-7.898,5.64-12.416,5.64c-3.4,0-6.011-0.788-7.835-2.359
			c-1.825-1.572-2.739-3.802-2.739-6.694c0-2.674,0.823-5.018,2.468-7.023c1.645-2.005,4.112-3.587,7.401-4.744
			c-0.941-1.083-1.729-2.059-2.359-2.927c-0.633-0.866-1.139-1.664-1.518-2.385c-0.379-0.727-0.65-1.421-0.814-2.089
			c-0.162-0.668-0.242-1.348-0.242-2.031c0-1.338,0.242-2.559,0.73-3.66c0.488-1.103,1.176-2.063,2.063-2.876
			c0.885-0.811,1.941-1.442,3.17-1.896c1.229-0.453,2.566-0.678,4.012-0.678c2.496,0,4.52,0.642,6.072,1.926
			c1.555,1.283,2.332,2.954,2.332,5.013c0,1.086-0.219,2.142-0.65,3.174c-0.434,1.029-1.049,1.996-1.844,2.899
			c-0.797,0.904-1.754,1.728-2.873,2.47c-1.121,0.74-2.352,1.362-3.688,1.869l11.061,12.524c1.047-1.336,2.023-2.803,2.928-4.391
			c0.902-1.592,1.699-3.309,2.387-5.153c0.072-0.214,0.125-0.38,0.162-0.485c0.035-0.109,0.053-0.256,0.053-0.435
			c0-0.396-0.117-0.688-0.352-0.869c-0.236-0.179-0.66-0.305-1.275-0.377l-4.391-0.272v-0.434h13.717v0.434l-4.119,0.272
			c-0.471,0.036-0.85,0.079-1.139,0.136c-0.289,0.053-0.543,0.161-0.76,0.323s-0.398,0.381-0.543,0.651
			C410.604,304.375,410.439,304.726,410.26,305.158z M383.639,313.779c0,2.567,0.697,4.619,2.09,6.154
			c1.391,1.536,3.242,2.304,5.555,2.304c1.664,0,3.326-0.388,4.99-1.165c1.662-0.777,3.27-1.854,4.824-3.226l-12.092-14.041
			c-1.697,1.046-3.016,2.438-3.955,4.172C384.109,309.713,383.639,311.647,383.639,313.779z M398.441,292.472
			c0-2.168-0.488-3.875-1.465-5.123c-0.977-1.247-2.313-1.87-4.012-1.87c-1.627,0-2.945,0.56-3.959,1.681
			c-1.01,1.119-1.516,2.603-1.516,4.445c0,1.519,0.416,3.08,1.246,4.689c0.832,1.611,2.17,3.461,4.012,5.56
			C396.545,299.755,398.441,296.627,398.441,292.472z"/>
		<path fill="#231F20" d="M441.326,322.672v0.433h-11.549v-0.433l3.037-0.272c0.902-0.072,1.545-0.241,1.926-0.513
			c0.379-0.271,0.711-0.824,1.002-1.654l13.281-35.405H450l13.664,37.301l4.5,0.544v0.433h-13.283v-0.433l4.443-0.544l-5.096-13.878
			h-13.119l-4.5,11.982c-0.145,0.397-0.217,0.725-0.217,0.976c0,0.397,0.117,0.679,0.352,0.841s0.66,0.278,1.275,0.351
			L441.326,322.672z M447.615,290.846l-6.182,16.537h12.471l-6.072-16.537H447.615z"/>
		<path fill="#231F20" d="M478.846,299.576c1.008,0,1.947,0.115,2.814,0.351c0.871,0.235,1.629,0.57,2.281,1.003
			c0.648,0.435,1.164,0.939,1.545,1.519c0.377,0.58,0.568,1.191,0.568,1.843c0,0.617-0.18,1.112-0.541,1.494
			c-0.363,0.376-0.852,0.568-1.467,0.568c-0.867,0-1.426-0.327-1.68-0.977c-0.252-0.651-0.461-1.363-0.623-2.141
			c-0.162-0.778-0.443-1.492-0.84-2.145c-0.398-0.649-1.16-0.977-2.277-0.977c-0.977,0-1.889,0.272-2.736,0.814
			c-0.852,0.542-1.582,1.301-2.197,2.277s-1.092,2.134-1.438,3.471c-0.344,1.337-0.516,2.8-0.516,4.392
			c0,3.181,0.668,5.629,2.006,7.346c1.336,1.718,3.236,2.575,5.693,2.575c2.639,0,4.826-1.138,6.561-3.415l0.49-0.652l0.215,0.109
			l-0.215,0.596c-0.725,1.92-1.818,3.398-3.283,4.447c-1.463,1.049-3.191,1.572-5.176,1.572c-1.445,0-2.777-0.288-3.984-0.868
			c-1.215-0.578-2.26-1.389-3.146-2.438c-0.887-1.05-1.572-2.286-2.059-3.717c-0.49-1.426-0.734-3.008-0.734-4.742
			c0-1.77,0.264-3.414,0.787-4.935c0.523-1.519,1.264-2.817,2.225-3.903c0.955-1.086,2.088-1.933,3.389-2.548
			C475.807,299.884,477.254,299.576,478.846,299.576z"/>
		<path fill="#231F20" d="M500.854,299.576c1.014,0,1.953,0.115,2.82,0.351c0.865,0.235,1.627,0.57,2.277,1.003
			c0.65,0.435,1.166,0.939,1.545,1.519c0.381,0.58,0.568,1.191,0.568,1.843c0,0.617-0.178,1.112-0.543,1.494
			c-0.359,0.376-0.846,0.568-1.461,0.568c-0.869,0-1.428-0.327-1.682-0.977c-0.252-0.651-0.461-1.363-0.623-2.141
			c-0.162-0.778-0.443-1.492-0.84-2.145c-0.398-0.649-1.158-0.977-2.277-0.977c-0.975,0-1.889,0.272-2.738,0.814
			s-1.584,1.301-2.195,2.277c-0.615,0.977-1.096,2.134-1.438,3.471s-0.516,2.8-0.516,4.392c0,3.181,0.668,5.629,2.006,7.346
			c1.336,1.718,3.236,2.575,5.691,2.575c2.641,0,4.828-1.138,6.563-3.415l0.486-0.652l0.219,0.109l-0.219,0.596
			c-0.721,1.92-1.813,3.398-3.279,4.447c-1.463,1.049-3.189,1.572-5.176,1.572c-1.445,0-2.775-0.288-3.986-0.868
			c-1.211-0.578-2.258-1.389-3.145-2.438c-0.887-1.05-1.57-2.286-2.063-3.717c-0.484-1.426-0.73-3.008-0.73-4.742
			c0-1.77,0.262-3.414,0.787-4.935c0.523-1.519,1.266-2.817,2.225-3.903c0.957-1.086,2.084-1.933,3.389-2.548
			C497.818,299.884,499.262,299.576,500.854,299.576z"/>
		<path fill="#231F20" d="M522.865,299.576c1.594,0,3.045,0.288,4.367,0.866c1.318,0.58,2.447,1.4,3.387,2.467
			c0.941,1.069,1.672,2.342,2.195,3.822c0.525,1.481,0.787,3.109,0.787,4.881c0,1.807-0.262,3.441-0.787,4.907
			c-0.523,1.463-1.254,2.727-2.195,3.792c-0.939,1.069-2.068,1.89-3.387,2.468c-1.322,0.58-2.773,0.868-4.367,0.868
			c-1.592,0-3.043-0.288-4.363-0.868c-1.32-0.578-2.449-1.398-3.389-2.468c-0.939-1.065-1.67-2.329-2.193-3.792
			c-0.527-1.466-0.789-3.101-0.789-4.907c0-1.771,0.262-3.399,0.789-4.881c0.523-1.48,1.254-2.753,2.193-3.822
			c0.939-1.066,2.068-1.887,3.389-2.467C519.822,299.864,521.273,299.576,522.865,299.576z M516.143,311.612
			c0,3.613,0.588,6.433,1.764,8.457c1.174,2.026,2.826,3.035,4.959,3.035c2.096,0,3.744-1.009,4.936-3.035
			c1.191-2.024,1.789-4.844,1.789-8.457c0-3.614-0.598-6.434-1.789-8.458c-1.191-2.025-2.84-3.039-4.936-3.039
			c-2.133,0-3.785,1.014-4.959,3.039C516.73,305.179,516.143,307.998,516.143,311.612z"/>
		<path fill="#231F20" d="M548.836,300.553v-0.438h6.777v19.627l2.98,0.652v0.271l-5.908,2.71h-0.326v-3.687l-0.162-0.053
			c-2.133,2.674-4.426,4.011-6.885,4.011c-1.123,0-2.115-0.235-2.982-0.705s-1.502-1.119-1.898-1.952
			c-0.107-0.251-0.209-0.523-0.299-0.811c-0.088-0.291-0.15-0.662-0.188-1.112c-0.037-0.453-0.063-1.022-0.084-1.708
			c-0.016-0.688-0.025-1.538-0.025-2.551v-13.822l-3.254-0.434v-0.438h6.777v14.693c0,1.41,0.037,2.459,0.109,3.147
			c0.074,0.685,0.215,1.263,0.434,1.733c0.287,0.615,0.723,1.086,1.301,1.409c0.578,0.325,1.248,0.487,2.006,0.487
			c1.879,0,3.508-0.884,4.881-2.653v-17.946L548.836,300.553z"/>
		<path fill="#231F20" d="M571.283,322.672v0.433h-10.141v-0.433l3.307-0.435v-18.703l-3.197-1.194v-0.381l6.125-2.111h0.434v3.415
			c2.35-2.459,4.771-3.687,7.268-3.687c1.117,0,2.141,0.235,3.061,0.706c0.924,0.469,1.582,1.118,1.979,1.948
			c0.109,0.254,0.209,0.526,0.299,0.814c0.092,0.29,0.156,0.661,0.191,1.112c0.035,0.452,0.063,1.021,0.08,1.707
			c0.02,0.688,0.029,1.538,0.029,2.548v13.825l3.252,0.435v0.433h-10.086v-0.433l3.309-0.435v-13.825
			c0-1.374-0.035-2.412-0.109-3.118c-0.07-0.704-0.217-1.289-0.432-1.76c-0.293-0.615-0.77-1.096-1.438-1.439
			c-0.672-0.341-1.439-0.514-2.307-0.514c-1.842,0-3.486,0.778-4.934,2.33v18.326L571.283,322.672z"/>
		<path fill="#231F20" d="M592.318,294.966v5.149h6.178l-0.324,0.871h-5.854v16.589c0,1.268,0.197,2.204,0.596,2.819
			c0.434,0.866,1.248,1.301,2.438,1.301c0.617,0,1.186-0.143,1.709-0.435c0.521-0.288,1.111-0.757,1.764-1.408l0.215,0.162
			c-0.543,1.121-1.301,2.008-2.277,2.657c-0.977,0.651-2.041,0.976-3.199,0.976c-0.576,0-1.139-0.089-1.678-0.271
			c-0.543-0.183-1.014-0.414-1.41-0.704c-0.615-0.435-1.049-0.984-1.305-1.654c-0.25-0.67-0.375-1.579-0.375-2.738v-17.35h-2.549
			l-0.109-0.271l5.963-5.745L592.318,294.966z"/>
		<path fill="#231F20" d="M610.859,322.672v0.433h-10.139v-0.433l3.305-0.435v-18.975l-3.195-1.194v-0.377l6.287-2.115h0.432v22.661
			L610.859,322.672z M602.889,291.766c0-0.721,0.234-1.336,0.703-1.844c0.471-0.505,1.104-0.757,1.9-0.757
			c0.795,0,1.426,0.252,1.895,0.757c0.471,0.508,0.707,1.123,0.707,1.844c0,0.725-0.236,1.341-0.707,1.843
			c-0.469,0.507-1.1,0.762-1.895,0.762c-0.797,0-1.43-0.255-1.9-0.762C603.123,293.106,602.889,292.49,602.889,291.766z"/>
		<path fill="#231F20" d="M623.275,322.672v0.433h-10.141v-0.433l3.307-0.435v-18.703l-3.199-1.194v-0.381l6.127-2.111h0.436v3.415
			c2.348-2.459,4.771-3.687,7.262-3.687c1.123,0,2.146,0.235,3.064,0.706c0.924,0.469,1.582,1.118,1.98,1.948
			c0.109,0.254,0.207,0.526,0.297,0.814c0.09,0.29,0.156,0.661,0.191,1.112c0.033,0.452,0.064,1.021,0.08,1.707
			c0.02,0.688,0.025,1.538,0.025,2.548v13.825l3.254,0.435v0.433h-10.084v-0.433l3.307-0.435v-13.825
			c0-1.374-0.037-2.412-0.105-3.118c-0.072-0.704-0.219-1.289-0.434-1.76c-0.291-0.615-0.771-1.096-1.439-1.439
			c-0.668-0.341-1.436-0.514-2.303-0.514c-1.844,0-3.488,0.778-4.934,2.33v18.326L623.275,322.672z"/>
		<path fill="#231F20" d="M646.855,336.443c-2.998,0-5.32-0.526-6.965-1.571c-1.645-1.05-2.465-2.548-2.465-4.501
			c0-1.376,0.521-2.614,1.57-3.717c1.047-1.101,2.492-1.958,4.336-2.573c-1.373-0.506-2.314-1.086-2.82-1.734
			c-0.506-0.651-0.758-1.39-0.758-2.224c0-1.012,0.596-1.933,1.791-2.764c1.191-0.834,2.945-1.502,5.258-2.008
			c-1.121-0.105-2.141-0.377-3.064-0.812c-0.92-0.433-1.717-0.995-2.385-1.681c-0.668-0.688-1.182-1.492-1.547-2.412
			c-0.359-0.923-0.539-1.926-0.539-3.012c0-1.155,0.217-2.214,0.648-3.171c0.434-0.956,1.033-1.79,1.791-2.494
			c0.758-0.705,1.66-1.247,2.709-1.625c1.051-0.381,2.205-0.569,3.473-0.569c2.021,0,3.758,0.507,5.205,1.516
			c0.867-3.144,2.275-4.717,4.229-4.717c0.686,0,1.229,0.189,1.625,0.57c0.396,0.38,0.596,0.877,0.596,1.493
			c0,0.506-0.182,0.94-0.543,1.3c-0.359,0.361-0.795,0.544-1.301,0.544c-0.287,0-0.533-0.057-0.73-0.167
			c-0.199-0.105-0.396-0.231-0.596-0.377c-0.199-0.145-0.4-0.271-0.596-0.38c-0.203-0.109-0.408-0.162-0.625-0.162
			c-0.723,0-1.248,0.741-1.572,2.223c0.939,0.723,1.662,1.6,2.168,2.629c0.506,1.031,0.76,2.176,0.76,3.444
			c0,1.082-0.191,2.095-0.568,3.034c-0.381,0.94-0.924,1.765-1.629,2.469c-0.705,0.705-1.545,1.265-2.521,1.681
			c-0.977,0.414-2.059,0.659-3.252,0.731c-1.844,0.288-3.254,0.722-4.229,1.301c-0.977,0.579-1.463,1.228-1.463,1.952
			c0,0.361,0.072,0.685,0.217,0.977c0.145,0.288,0.451,0.549,0.922,0.784c0.469,0.235,1.117,0.471,1.951,0.704
			c0.832,0.235,1.934,0.48,3.307,0.732c3.111,0.579,5.305,1.393,6.588,2.442c1.283,1.045,1.926,2.527,1.926,4.443
			c0,1.086-0.271,2.099-0.813,3.038c-0.545,0.94-1.301,1.751-2.277,2.438c-0.977,0.685-2.135,1.229-3.473,1.624
			C649.857,336.245,648.412,336.443,646.855,336.443z M647.617,325.275c-1.447-0.328-2.709-0.652-3.795-0.976
			c-2.531,0.903-3.797,2.763-3.797,5.582c0,1.953,0.621,3.445,1.869,4.474c1.248,1.029,3.014,1.545,5.289,1.545
			c2.277,0,4.084-0.495,5.42-1.492c1.338-0.992,2.006-2.34,2.006-4.037c0-0.688-0.105-1.283-0.324-1.79
			c-0.219-0.506-0.59-0.96-1.111-1.356c-0.523-0.397-1.238-0.748-2.143-1.056C650.129,325.861,648.99,325.563,647.617,325.275z
			 M647.889,314.865c1.373,0,2.484-0.685,3.332-2.063c0.85-1.373,1.275-3.143,1.275-5.311c0-2.172-0.426-3.941-1.275-5.314
			c-0.848-1.374-1.959-2.063-3.332-2.063c-1.377,0-2.486,0.688-3.336,2.063c-0.852,1.373-1.273,3.143-1.273,5.314
			c0,2.168,0.422,3.938,1.273,5.311C645.402,314.181,646.512,314.865,647.889,314.865z"/>
	</g>
	
		<line fill="none" stroke="#0F2531" stroke-width="1.186" stroke-miterlimit="10" x1="21.721" y1="351.848" x2="788.279" y2="351.848"/>
</g>
</svg>
